<svg xmlns="http://www.w3.org/2000/svg" viewBox="0 0 800 1000"><rect width="800" height="1000" fill="#3A1F3D"/><path d="M160 1000V430a240 240 0 0 1 480 0v570z" fill="#EBD9C3"/><path d="M215 1000V440a185 185 0 0 1 370 0v560z" fill="#C74B5E"/><path d="M60 1000c0-200 130-320 340-320s340 120 340 320z" fill="#EBD9C3"/><path d="M400 690v310M300 700l-30 300M500 700l30 300" stroke="#14120F" stroke-width="10"/><path d="M335 690c20 55 110 55 130 0l-14-95h-102z" fill="#5C3524"/><path d="M345 720c20 50 90 50 110 0" stroke="#E7C873" stroke-width="7" fill="none"/><circle cx="400" cy="785" r="14" fill="#E7C873"/><ellipse cx="400" cy="470" rx="108" ry="138" fill="#6A3E2B"/><path d="M290 455c-8-110 40-165 112-165s122 55 108 165c-12-40-30-70-60-85-35 10-95 10-125 0-20 15-30 45-35 85z" fill="#120B0C"/><path d="M300 520c20 80 60 105 100 105s80-25 100-105c-25 35-60 45-100 45s-75-10-100-45z" fill="#120B0C"/><path d="M312 462h74M414 462h74" stroke="#120B0C" stroke-width="14" stroke-linecap="round"/><rect x="305" y="445" width="190" height="42" rx="18" fill="none"/><path d="M372 560q28 14 56 0" stroke="#2A140E" stroke-width="7" fill="none" stroke-linecap="round"/><rect x="298" y="438" width="90" height="56" rx="10" fill="#120B0C" opacity=".92"/><rect x="412" y="438" width="90" height="56" rx="10" fill="#120B0C" opacity=".92"/><path d="M388 462h24" stroke="#120B0C" stroke-width="8"/><path d="M318 452l20-8M432 452l20-8" stroke="#EBD9C3" stroke-width="5" opacity=".6"/></svg>
